{
  "accessors": [
    {
      "bufferView": 2,
      "componentType": 5126,
      "count": 31499,
      "max": [
        0.1129266619682312,
        0.2853412926197052,
        0.06470613926649094
      ],
      "min": [
        -0.12548111379146576,
        -0.0775909572839737,
        -0.12088804692029953
      ],
      "type": "VEC3"
    },
    {
      "bufferView": 2,
      "byteOffset": 377988,
      "componentType": 5126,
      "count": 31499,
      "max": [
        0.9999946355819702,
        0.9999997019767761,
        0.9999719262123108
      ],
      "min": [
        -0.9999949932098389,
        -0.9998116493225098,
        -0.9999799728393555
      ],
      "type": "VEC3"
    },
    {
      "bufferView": 1,
      "componentType": 5126,
      "count": 31499,
      "max": [
        0.9972372055053711,
        0.9999977350234985
      ],
      "min": [
        2.1683987142750993e-05,
        3.8076213968452066e-05
      ],
      "type": "VEC2"
    },
    {
      "bufferView": 1,
      "byteOffset": 251992,
      "componentType": 5126,
      "count": 31499,
      "max": [
        0.9972372055053711,
        0.9999977350234985
      ],
      "min": [
        2.1683987142750993e-05,
        3.8076213968452066e-05
      ],
      "type": "VEC2"
    },
    {
      "bufferView": 1,
      "byteOffset": 503984,
      "componentType": 5126,
      "count": 31499,
      "max": [
        0.9972372055053711,
        0.9999977350234985
      ],
      "min": [
        2.1683987142750993e-05,
        3.8076213968452066e-05
      ],
      "type": "VEC2"
    },
    {
      "bufferView": 1,
      "byteOffset": 755976,
      "componentType": 5126,
      "count": 31499,
      "max": [
        0.9972372055053711,
        0.9999977350234985
      ],
      "min": [
        2.1683987142750993e-05,
        3.8076213968452066e-05
      ],
      "type": "VEC2"
    },
    {
      "bufferView": 1,
      "byteOffset": 1007968,
      "componentType": 5126,
      "count": 31499,
      "max": [
        0.9972372055053711,
        0.9999977350234985
      ],
      "min": [
        2.1683987142750993e-05,
        3.8076213968452066e-05
      ],
      "type": "VEC2"
    },
    {
      "bufferView": 0,
      "componentType": 5125,
      "count": 159627,
      "type": "SCALAR"
    }
  ],
  "asset": {
    "extras": {
      "author": "alban (https://sketchfab.com/alban)",
      "license": "CC-BY-4.0 (http://creativecommons.org/licenses/by/4.0/)",
      "source": "https://sketchfab.com/3d-models/bob-ross-painting-00a57bbd1c894a7cb9e45ec396a8f660",
      "title": "Bob Ross painting"
    },
    "generator": "Sketchfab-13.23.0",
    "version": "2.0"
  },
  "bufferViews": [
    {
      "buffer": 0,
      "byteLength": 638508,
      "name": "floatBufferViews",
      "target": 34963
    },
    {
      "buffer": 0,
      "byteLength": 1259960,
      "byteOffset": 638508,
      "byteStride": 8,
      "name": "floatBufferViews",
      "target": 34962
    },
    {
      "buffer": 0,
      "byteLength": 755976,
      "byteOffset": 1898468,
      "byteStride": 12,
      "name": "floatBufferViews",
      "target": 34962
    }
  ],
  "buffers": [
    {
      "byteLength": 2654444,
      "uri": "scene.bin"
    }
  ],
  "extensionsUsed": [
    "KHR_materials_unlit"
  ],
  "images": [
    {
      "uri": "textures/material_0_baseColor.jpeg"
    }
  ],
  "materials": [
    {
      "extensions": {
        "KHR_materials_unlit": {}
      },
      "name": "material_0",
      "pbrMetallicRoughness": {
        "baseColorTexture": {
          "index": 0
        },
        "metallicFactor": 0.0
      }
    }
  ],
  "meshes": [
    {
      "name": "Object_0",
      "primitives": [
        {
          "attributes": {
            "NORMAL": 1,
            "POSITION": 0,
            "TEXCOORD_0": 2,
            "TEXCOORD_1": 3,
            "TEXCOORD_2": 4,
            "TEXCOORD_3": 5,
            "TEXCOORD_4": 6
          },
          "indices": 7,
          "material": 0,
          "mode": 4
        }
      ]
    }
  ],
  "nodes": [
    {
      "children": [
        1
      ],
      "matrix": [
        1.0,
        0.0,
        0.0,
        0.0,
        0.0,
        2.220446049250313e-16,
        -1.0,
        0.0,
        0.0,
        1.0,
        2.220446049250313e-16,
        0.0,
        0.0,
        0.0,
        0.0,
        1.0
      ],
      "name": "Sketchfab_model"
    },
    {
      "children": [
        2
      ],
      "name": "root"
    },
    {
      "children": [
        3
      ],
      "matrix": [
        1.0,
        0.0,
        0.0,
        0.0,
        0.0,
        2.220446049250313e-16,
        1.0,
        0.0,
        0.0,
        -1.0,
        2.220446049250313e-16,
        0.0,
        0.0,
        0.0,
        0.0,
        1.0
      ],
      "name": "GLTF_SceneRootNode"
    },
    {
      "children": [
        4
      ],
      "name": "_0"
    },
    {
      "mesh": 0,
      "name": "Object_4"
    }
  ],
  "samplers": [
    {
      "magFilter": 9729,
      "minFilter": 9987,
      "wrapS": 10497,
      "wrapT": 10497
    }
  ],
  "scene": 0,
  "scenes": [
    {
      "name": "Sketchfab_Scene",
      "nodes": [
        0
      ]
    }
  ],
  "textures": [
    {
      "sampler": 0,
      "source": 0
    }
  ]
}
